<svg width="24" height="24" viewBox="0 0 24 24" fill="none" xmlns="http://www.w3.org/2000/svg">
<path d="M17.2207 17.4141H17.4542C18.8931 17.4141 19.8499 16.623 19.8499 14.9355V7.83146H15.616C14.8552 7.83146 14.3806 7.35686 14.3806 6.59597V2.10602H10.3275C8.75304 2.10602 7.88669 2.96484 7.88669 4.52427V4.87834H9.04685C10.2296 4.87834 11.0884 5.15708 11.9246 5.98576L16.2037 10.2648C17.0173 11.0784 17.2207 12.0125 17.2207 13.135V17.4141ZM15.827 6.81444H19.7293C19.6917 6.55831 19.5033 6.32477 19.217 6.03096L16.1735 2.9121C15.8948 2.62583 15.6537 2.43749 15.3976 2.40736L15.4051 6.38504C15.4051 6.68638 15.5256 6.81444 15.827 6.81444ZM6.606 21.2863H13.6573C15.2695 21.2863 16.1133 20.435 16.1133 18.8077V12.9693H10.7419C9.78513 12.9693 9.31805 12.4947 9.31805 11.5379V5.97823H6.606C4.99384 5.97823 4.15009 6.83704 4.15009 8.46428V18.8077C4.15009 20.4425 4.99384 21.2863 6.606 21.2863ZM10.8323 11.8619H15.9777C15.8873 11.5379 15.6914 11.2291 15.3524 10.8825L11.3822 6.85211C11.0357 6.50557 10.7419 6.27203 10.4179 6.1741V11.4475C10.4179 11.7187 10.5611 11.8619 10.8323 11.8619Z" fill="#8F92A1"/>
</svg>
