<svg width="24" height="24" viewBox="0 0 24 24" fill="none" xmlns="http://www.w3.org/2000/svg">
<path d="M18.789 18.0011H12.479C12.3377 18.0011 12.2194 17.9531 12.124 17.8571C12.028 17.7611 11.98 17.6421 11.98 17.5001C11.98 17.3588 12.028 17.2401 12.124 17.1441C12.2194 17.0488 12.338 17.0011 12.48 17.0011H18.79L17.068 15.2611C16.9747 15.1631 16.9237 15.0455 16.915 14.9081C16.907 14.7701 16.957 14.6511 17.065 14.5511C17.165 14.4511 17.2807 14.4045 17.412 14.4111C17.5447 14.4178 17.6597 14.4695 17.757 14.5661L20.145 16.9361C20.3064 17.0975 20.387 17.2858 20.387 17.5011C20.387 17.7165 20.3064 17.9048 20.145 18.0661L17.757 20.4551C17.6617 20.5525 17.5507 20.6011 17.424 20.6011C17.2974 20.6011 17.1807 20.5511 17.074 20.4511C16.96 20.3511 16.907 20.2321 16.915 20.0941C16.923 19.9561 16.974 19.8385 17.068 19.7411L18.789 18.0011ZM5.21105 12.8281H4.97905C4.77238 12.8281 4.59905 12.7581 4.45905 12.6181C4.31838 12.4781 4.24805 12.3048 4.24805 12.0981V11.8661C4.24805 11.6595 4.31805 11.4861 4.45805 11.3461C4.59805 11.2061 4.77138 11.1361 4.97805 11.1361H5.21005C5.41671 11.1361 5.59005 11.2061 5.73005 11.3461C5.87005 11.4861 5.94005 11.6595 5.94005 11.8661V12.0971C5.94005 12.3038 5.87005 12.4771 5.73005 12.6171C5.59005 12.7571 5.41671 12.8271 5.21005 12.8271M10.073 12.8271C9.31305 12.8271 8.66505 12.5591 8.12905 12.0231C7.59305 11.4858 7.32505 10.8375 7.32505 10.0781V6.07813C7.32505 5.31813 7.59371 4.66979 8.13105 4.13313C8.66838 3.59646 9.31705 3.32812 10.077 3.32812C10.837 3.32812 11.485 3.59646 12.021 4.13313C12.557 4.67046 12.825 5.31879 12.825 6.07813V10.0781C12.825 10.8381 12.5564 11.4865 12.019 12.0231C11.4817 12.5598 10.833 12.8271 10.073 12.8271ZM17.957 12.8281C17.197 12.8281 16.549 12.5598 16.013 12.0231C15.4777 11.4858 15.21 10.8375 15.21 10.0781V6.07813C15.21 5.31813 15.4787 4.66979 16.016 4.13313C16.5534 3.59646 17.202 3.32812 17.962 3.32812C18.722 3.32812 19.37 3.59646 19.906 4.13313C20.442 4.67046 20.71 5.31879 20.71 6.07813V10.0781C20.71 10.8381 20.4414 11.4865 19.904 12.0231C19.3667 12.5598 18.7177 12.8281 17.957 12.8281ZM10.075 11.8281C10.5617 11.8281 10.975 11.6581 11.315 11.3181C11.655 10.9781 11.825 10.5648 11.825 10.0781V6.07813C11.825 5.59146 11.655 5.17812 11.315 4.83812C10.975 4.49812 10.5617 4.32813 10.075 4.32813C9.58838 4.32813 9.17505 4.49812 8.83505 4.83812C8.49505 5.17812 8.32505 5.59146 8.32505 6.07813V10.0781C8.32505 10.5648 8.49505 10.9781 8.83505 11.3181C9.17505 11.6581 9.58838 11.8281 10.075 11.8281ZM17.96 11.8281C18.446 11.8281 18.8594 11.6581 19.2 11.3181C19.54 10.9781 19.71 10.5648 19.71 10.0781V6.07813C19.71 5.59146 19.54 5.17812 19.2 4.83812C18.8594 4.49812 18.446 4.32813 17.96 4.32813C17.4734 4.32813 17.06 4.49812 16.72 4.83812C16.38 5.17812 16.21 5.59146 16.21 6.07813V10.0781C16.21 10.5648 16.38 10.9781 16.72 11.3181C17.06 11.6581 17.4734 11.8281 17.96 11.8281Z" fill="black"/>
</svg>
