<svg width="32" height="32" viewBox="0 0 32 32" fill="none" xmlns="http://www.w3.org/2000/svg">
<path d="M28.9998 26H11.9998C11.7346 25.9999 11.4803 25.8946 11.2928 25.707L2.29279 16.707C2.10532 16.5195 2 16.2652 2 16C2 15.7348 2.10532 15.4805 2.29279 15.293L11.2928 6.293C11.4803 6.10545 11.7346 6.00006 11.9998 6H28.9998C29.265 6 29.5194 6.10536 29.7069 6.29289C29.8944 6.48043 29.9998 6.73478 29.9998 7V25C29.9998 25.2652 29.8944 25.5196 29.7069 25.7071C29.5194 25.8946 29.265 26 28.9998 26ZM12.4138 24H27.9998V8H12.4138L4.41379 16L12.4138 24Z" fill="black"/>
<path d="M20.414 16L25 11.414L23.586 10L19 14.586L14.414 10L13 11.414L17.586 16L13 20.586L14.414 22L19 17.414L23.586 22L25 20.586L20.414 16Z" fill="black"/>
</svg>
