<svg width="260" height="202" viewBox="0 0 260 202" fill="none" xmlns="http://www.w3.org/2000/svg">
<g clip-path="url(#clip0_0_1752)">
<path d="M127.208 188.452L132.636 183.03L129.688 184.121C130.017 182.805 130.069 181.384 129.792 179.929L97.9552 14.8468C96.8281 8.99122 90.7763 4.69483 84.4471 5.2492L9.60652 11.8151C9.17301 11.8497 8.7395 11.919 8.32334 12.0056L7.09218 10.741L3.67615 14.1192C3.08658 14.5869 2.56637 15.1067 2.09818 15.661C0.381495 17.7573 -0.381476 20.5118 0.173412 23.4223L32.0101 188.504C33.1373 194.343 39.189 198.656 45.5182 198.102L120.359 191.536C123.099 191.294 125.44 190.185 127.122 188.522L127.156 188.487C127.156 188.487 127.174 188.47 127.191 188.452H127.208Z" fill="#6644FF"/>
<path d="M14.8086 6.60054C8.49674 7.15491 4.26571 12.3695 5.39283 18.2077L37.2296 183.29C38.3567 189.128 44.4084 193.442 50.7376 192.887L125.578 186.322C131.907 185.767 136.121 180.57 134.994 174.714L103.157 9.64959C102.03 3.79402 95.9784 -0.502378 89.6492 0.0519957L14.8086 6.60054Z" fill="#181A1F"/>
<path d="M127.278 185.005C126.671 185.161 126.046 185.282 125.405 185.334L50.5642 191.9C47.8071 192.143 44.998 191.363 42.6744 189.717C40.3508 188.071 38.8075 185.75 38.3047 183.186L6.46792 18.1211C5.58356 13.4955 8.37535 9.21647 13.1266 7.93448C13.7335 7.77857 14.3751 7.6573 15.0167 7.60533L89.8573 1.03946C92.6144 0.796922 95.4235 1.57651 97.7471 3.22231C100.071 4.86811 101.614 7.18955 102.1 9.7362L133.936 174.818C134.838 179.444 132.029 183.723 127.278 185.005Z" fill="#6644FF"/>
<path d="M41.0964 177.625L128.942 169.881L99.169 15.9382L11.3232 23.6821L41.0964 177.625Z" fill="#181A1F"/>
<path fill-rule="evenodd" clip-rule="evenodd" d="M55.8357 29.9535C61.4886 28.7235 66.7427 29.7456 70.7656 31.8245C71.9274 32.4136 73.332 33.0892 73.2973 34.4058C73.28 35.0295 72.6731 35.4106 72.1875 35.5146C70.7656 35.8437 69.9853 34.8563 69.0143 34.4058C66.1358 33.0892 63.0145 32.1537 58.6621 32.7081C54.3271 33.2624 51.9861 34.8389 49.9746 36.8312C49.3677 37.4376 49.0209 38.529 47.7551 38.6156C46.9401 38.6849 46.0731 38.2865 45.761 37.4722C45.3448 36.4154 46.3158 35.5839 47.0095 34.8389C49.0729 32.6215 51.9514 30.7851 55.8183 29.9362L55.8357 29.9535Z" fill="#6644FF"/>
<path fill-rule="evenodd" clip-rule="evenodd" d="M57.6044 35.5666C60.5349 34.8909 63.5694 35.1335 66.0664 35.9997C67.8872 36.6233 70.1934 37.4029 70.4709 38.8928C70.6096 39.6031 70.1934 40.2268 69.6038 40.4C68.2513 40.8158 68.0259 40.1921 67.2976 39.8283C65.6329 38.9968 63.3787 38.1652 60.899 38.2691C57.1362 38.4424 55.5236 39.9669 54.119 41.5088C53.6681 42.0112 53.4427 42.5829 52.2983 42.6002C51.4833 42.6175 50.5989 42.0112 50.3908 41.3355C50.0614 40.3307 51.2405 39.2047 51.7607 38.6849C53.2173 37.2297 54.8299 36.2076 57.6391 35.5666H57.6044Z" fill="#6644FF"/>
<path fill-rule="evenodd" clip-rule="evenodd" d="M59.0956 41.2836C61.0724 40.7638 63.2226 40.9024 65.026 41.6127C66.0838 42.0285 67.471 42.7041 67.6617 43.7609C67.8351 44.6098 67.2802 45.2854 66.4826 45.424C65.2861 45.6319 64.4191 44.4192 62.9105 44.1594C61.6793 43.9515 60.3961 44.2806 59.6158 44.6964C58.5234 45.2854 58.1593 46.4808 57.2055 46.6194C56.2518 46.758 55.1767 46.0824 54.9166 45.2854C54.3617 43.5877 57.4656 41.734 59.113 41.3009L59.0956 41.2836Z" fill="#6644FF"/>
<path fill-rule="evenodd" clip-rule="evenodd" d="M64.2457 48.4731C64.5578 49.5472 63.8469 50.552 62.6504 50.7079C61.4539 50.8638 60.2401 50.1016 59.928 49.0275C59.6158 47.9534 60.3268 46.9486 61.5233 46.7926C62.7198 46.6367 63.9336 47.399 64.2457 48.4731Z" fill="#6644FF"/>
<path d="M177.044 76.365L193.275 81.285C194.471 81.6489 195.668 81.926 196.881 82.1513C207.65 84.2475 211.413 88.1108 215.401 96.1146C219.615 104.551 244.342 157.044 244.342 157.044L204.251 178.578C202.916 173.502 198.459 169.275 187.483 161.08C176.507 152.886 174.2 146.822 174.2 146.822C173.472 148.174 170.524 152.245 167.455 151.639C161.004 150.357 162.079 143.669 162.079 143.669C157.779 149.248 152.144 147.394 152.144 147.394C150.045 146.909 145.97 143.739 148.103 135.96C148.103 135.96 145.311 143.115 137.768 142.769C130.225 142.422 130 134.696 132.497 128.753C134.977 122.811 139.069 113.595 139.069 113.595L177.044 76.3477V76.365Z" fill="#181A1F"/>
<path d="M204.251 179.063C204.251 179.063 204.112 179.063 204.06 179.028C203.922 178.976 203.818 178.855 203.783 178.716C202.552 174.073 198.685 170.054 187.188 161.479C178.466 154.965 175.171 149.82 174.131 147.845C172.917 149.681 170.229 152.678 167.351 152.106C162.444 151.136 161.611 147.204 161.542 145.021C157.224 149.49 152.04 147.862 151.987 147.845C150.912 147.602 149.317 146.667 148.225 144.83C147.479 143.583 146.785 141.573 147.098 138.611C145.572 140.672 142.762 143.254 138.289 143.254C138.115 143.254 137.942 143.254 137.751 143.254C135.029 143.132 133.052 142.11 131.838 140.187C129.775 136.93 130.59 132.045 132.046 128.563C134.508 122.673 138.583 113.491 138.618 113.404C138.635 113.352 138.687 113.3 138.722 113.248L176.697 76.0012C176.819 75.8799 177.009 75.828 177.183 75.8799L193.413 80.8C194.436 81.1118 195.564 81.389 196.985 81.6662C208.066 83.8317 211.898 87.9722 215.852 95.8894C220.031 104.24 244.55 156.299 244.793 156.819C244.897 157.044 244.81 157.338 244.585 157.46L204.494 178.993C204.494 178.993 204.338 179.045 204.268 179.045L204.251 179.063ZM174.2 146.337H174.235C174.426 146.337 174.599 146.476 174.651 146.649C174.669 146.701 177.079 152.713 187.778 160.699C197.957 168.287 202.916 172.687 204.546 177.867L243.7 156.836C241.359 151.864 218.938 104.274 214.967 96.3398C211.083 88.5612 207.546 84.7326 196.777 82.6364C195.338 82.3592 194.176 82.0647 193.119 81.7528L177.166 76.9021L139.45 113.872C139.034 114.807 135.254 123.366 132.931 128.927C131.561 132.184 130.78 136.722 132.636 139.65C133.676 141.279 135.393 142.162 137.768 142.266C137.942 142.266 138.098 142.266 138.271 142.266C144.982 142.266 147.531 136.012 147.635 135.752C147.722 135.51 147.999 135.389 148.242 135.475C148.485 135.562 148.623 135.822 148.554 136.064C147.392 140.274 148.19 142.873 149.04 144.328C149.976 145.904 151.346 146.701 152.23 146.909C152.49 146.996 157.64 148.59 161.681 143.358C161.819 143.184 162.062 143.115 162.253 143.202C162.461 143.288 162.582 143.496 162.548 143.721C162.513 143.981 161.629 149.975 167.542 151.154C170.073 151.639 172.883 148.226 173.767 146.58C173.854 146.424 174.01 146.32 174.2 146.32V146.337Z" fill="#6644FF"/>
<path d="M249.405 156.697C252.214 159.92 256.861 168.252 259.792 175.65C260.26 176.828 259.896 178.075 258.873 178.786C247.203 186.807 225.822 198.067 218.245 201.706C216.857 202.381 215.054 201.913 214.083 200.649C211.083 196.733 205.049 188.297 202.846 181.211C202.534 180.189 202.846 179.167 203.748 178.595C211.187 173.796 239.417 159.642 246.509 156.108C247.463 155.64 248.694 155.9 249.405 156.732V156.697Z" fill="#6644FF"/>
<path d="M187.951 108.276C187.951 108.276 187.917 108.276 187.882 108.276C187.622 108.242 187.431 107.999 187.466 107.739C188.055 103.408 194.488 102.126 194.766 102.074C195.026 102.022 195.286 102.195 195.338 102.455C195.39 102.715 195.217 102.975 194.957 103.027C194.887 103.027 188.922 104.24 188.437 107.878C188.402 108.12 188.194 108.293 187.951 108.293V108.276Z" fill="#6644FF"/>
<path d="M162.097 144.137C161.993 144.137 161.906 144.103 161.819 144.051C161.594 143.895 161.559 143.583 161.715 143.375C161.75 143.34 164.698 139.165 165.808 132.201C165.842 131.941 166.102 131.75 166.363 131.802C166.623 131.837 166.813 132.097 166.761 132.357C165.617 139.564 162.634 143.773 162.496 143.947C162.409 144.085 162.253 144.155 162.097 144.155V144.137Z" fill="#6644FF"/>
<path d="M148.155 136.411C148.069 136.411 147.982 136.393 147.895 136.341C147.67 136.203 147.6 135.891 147.739 135.666C147.774 135.596 151.623 129.446 153.826 120.836C153.895 120.576 154.155 120.42 154.415 120.49C154.675 120.559 154.831 120.819 154.762 121.079C152.525 129.845 148.606 136.116 148.554 136.185C148.467 136.324 148.311 136.411 148.138 136.411H148.155Z" fill="#6644FF"/>
<path d="M186.391 111.533C186.755 113.404 185.402 115.067 183.373 115.258L74.147 125.063C72.1182 125.237 70.1761 123.868 69.8119 121.997L59.113 67.2698C58.7488 65.3988 60.1014 63.7184 62.1302 63.5451L171.357 53.7396C173.368 53.5664 175.327 54.935 175.692 56.806L186.391 111.533Z" fill="#6644FF"/>
<path d="M101.267 68.6904C101.441 69.5739 100.799 70.3535 99.8453 70.4401L67.9565 73.2986C67.0028 73.3852 66.0838 72.7442 65.9103 71.8607C65.7369 70.9772 66.3612 70.1976 67.3323 70.111L99.221 67.2525C100.175 67.1658 101.094 67.8068 101.267 68.6904Z" fill="#181A1F"/>
<path d="M109.14 108.969C109.313 109.853 108.671 110.632 107.718 110.719L75.829 113.577C74.8753 113.664 73.9562 113.023 73.7828 112.139C73.6094 111.256 74.251 110.476 75.2047 110.39L107.093 107.531C108.047 107.445 108.966 108.086 109.14 108.986V108.969Z" fill="#181A1F"/>
<path d="M96.8627 115.674C96.9668 116.228 96.568 116.713 95.9784 116.765L76.1238 118.549C75.5342 118.601 74.962 118.203 74.8579 117.649C74.7539 117.094 75.1354 116.609 75.7423 116.557L95.5969 114.773C96.1865 114.721 96.7587 115.119 96.8627 115.674Z" fill="#181A1F"/>
<path d="M148.242 105.452C148.415 106.336 147.774 107.115 146.82 107.202L114.931 110.061C113.978 110.147 113.059 109.506 112.885 108.623C112.712 107.739 113.336 106.96 114.307 106.873L146.196 104.014C147.15 103.928 148.069 104.569 148.242 105.47V105.452Z" fill="#181A1F"/>
<path d="M167.802 74.2341L161.941 74.7539C159.669 74.9617 157.502 73.4199 157.086 71.3237L156.028 65.9012C155.612 63.805 157.12 61.934 159.392 61.7261L165.253 61.2063C167.524 60.9985 169.692 62.5403 170.108 64.6365L171.166 70.059C171.582 72.1552 170.073 74.0262 167.802 74.2341Z" fill="#181A1F"/>
<path d="M174.2 146.822C174.2 146.822 168.842 138.732 167.698 132.08C165.617 119.277 160.71 113.785 158.369 110.528C156.028 107.271 145.728 99.1116 141.219 93.0309C136.693 86.9501 137.63 80.4015 140.092 79.1369C144.809 77.006 154.346 79.1022 159.721 82.671C165.079 86.2398 169.449 94.8326 175.813 100.359C182.177 105.885 191.194 109.42 191.194 109.42C191.194 109.42 199.292 141.14 174.2 146.84V146.822Z" fill="#181A1F"/>
<path d="M174.2 147.308C174.044 147.308 173.888 147.238 173.802 147.082C173.576 146.753 168.374 138.836 167.23 132.149C165.374 120.715 161.23 115.154 158.75 111.828C158.473 111.464 158.213 111.117 157.987 110.788C156.999 109.42 154.536 107.115 151.675 104.448C147.808 100.844 143.439 96.7729 140.838 93.2907C137.63 88.9943 137.179 84.5767 137.803 81.8741C138.167 80.3149 138.913 79.1715 139.884 78.6864C144.913 76.3996 154.641 78.6864 159.999 82.2379C162.894 84.1609 165.478 87.4871 168.218 91.0039C170.663 94.1396 173.177 97.3966 176.16 99.9605C182.402 105.348 191.315 108.9 191.402 108.934C191.645 109.038 191.766 109.316 191.679 109.558C191.575 109.801 191.298 109.939 191.055 109.835C190.968 109.801 181.899 106.197 175.536 100.688C172.484 98.0549 169.935 94.7633 167.472 91.593C164.785 88.1454 162.253 84.8712 159.496 83.0521C154.45 79.7086 144.999 77.4564 140.335 79.5526C139.641 79.8991 139.069 80.8346 138.774 82.0993C138.185 84.594 138.635 88.6825 141.635 92.719C144.184 96.1319 148.519 100.186 152.352 103.755C155.247 106.457 157.762 108.779 158.802 110.234C159.028 110.546 159.288 110.892 159.565 111.256C162.097 114.651 166.328 120.316 168.218 131.993C169.328 138.472 174.599 146.476 174.651 146.545C174.807 146.77 174.738 147.065 174.512 147.221C174.426 147.273 174.339 147.308 174.252 147.308H174.2Z" fill="#6644FF"/>
<path d="M141.167 92.4418C140.942 92.4418 140.734 92.3899 140.595 92.3206C140.352 92.1993 140.248 91.9221 140.369 91.6796C140.474 91.437 140.768 91.3331 141.011 91.4544C141.063 91.4717 141.583 91.6623 142.173 90.7441C143.127 89.0809 146.057 86.4477 148.19 84.5247C149.126 83.6758 150.184 82.723 150.444 82.3938C150.357 81.9607 149.629 80.5921 148.97 79.5007C148.832 79.2755 148.901 78.9809 149.126 78.8423C149.352 78.7038 149.647 78.7731 149.785 78.9983C150.427 80.055 151.467 81.9087 151.415 82.5497C151.381 82.9309 150.964 83.3293 148.832 85.2523C146.733 87.1233 143.872 89.7046 143.005 91.2465C142.398 92.1993 141.687 92.4592 141.167 92.4592V92.4418Z" fill="#6644FF"/>
<path d="M213.303 180.345C211.152 180.709 209.887 182.632 210.476 184.624C211.048 186.616 213.268 187.95 215.418 187.569C217.568 187.205 218.834 185.282 218.245 183.29C217.672 181.298 215.453 179.964 213.303 180.345Z" fill="#181A1F"/>
</g>
<defs>
<clipPath id="clip0_0_1752">
<rect width="260" height="202" fill="white"/>
</clipPath>
</defs>
</svg>
