<svg width="25" height="24" viewBox="0 0 25 24" fill="none" xmlns="http://www.w3.org/2000/svg">
<path d="M5.54999 4.79999C4.91347 4.79999 4.30302 5.05284 3.85294 5.50293C3.40285 5.95302 3.14999 6.56347 3.14999 7.19999V8.39999H22.35V7.19999C22.35 6.56347 22.0971 5.95302 21.647 5.50293C21.197 5.05284 20.5865 4.79999 19.95 4.79999H5.54999Z" fill="#8F92A1"/>
<path fill-rule="evenodd" clip-rule="evenodd" d="M22.35 10.8H3.14999V16.8C3.14999 17.4365 3.40285 18.047 3.85294 18.497C4.30302 18.9471 4.91347 19.2 5.54999 19.2H19.95C20.5865 19.2 21.197 18.9471 21.647 18.497C22.0971 18.047 22.35 17.4365 22.35 16.8V10.8ZM5.54999 15.6C5.54999 15.2817 5.67642 14.9765 5.90147 14.7515C6.12651 14.5264 6.43173 14.4 6.74999 14.4H7.94999C8.26825 14.4 8.57348 14.5264 8.79852 14.7515C9.02357 14.9765 9.14999 15.2817 9.14999 15.6C9.14999 15.9182 9.02357 16.2235 8.79852 16.4485C8.57348 16.6736 8.26825 16.8 7.94999 16.8H6.74999C6.43173 16.8 6.12651 16.6736 5.90147 16.4485C5.67642 16.2235 5.54999 15.9182 5.54999 15.6ZM11.55 14.4C11.2317 14.4 10.9265 14.5264 10.7015 14.7515C10.4764 14.9765 10.35 15.2817 10.35 15.6C10.35 15.9182 10.4764 16.2235 10.7015 16.4485C10.9265 16.6736 11.2317 16.8 11.55 16.8H12.75C13.0683 16.8 13.3735 16.6736 13.5985 16.4485C13.8236 16.2235 13.95 15.9182 13.95 15.6C13.95 15.2817 13.8236 14.9765 13.5985 14.7515C13.3735 14.5264 13.0683 14.4 12.75 14.4H11.55Z" fill="#8F92A1"/>
</svg>
