<svg width="18" height="18" viewBox="0 0 18 18" fill="none" xmlns="http://www.w3.org/2000/svg">
<path d="M9 17.4736C4.37646 17.4736 0.533203 13.6304 0.533203 9.00684C0.533203 4.375 4.36816 0.540039 8.9917 0.540039C13.6235 0.540039 17.4668 4.375 17.4668 9.00684C17.4668 13.6304 13.6318 17.4736 9 17.4736ZM9 16.0625C12.918 16.0625 16.0557 12.9248 16.0557 9.00684C16.0557 5.08887 12.9097 1.95117 8.9917 1.95117C5.07373 1.95117 1.95264 5.08887 1.95264 9.00684C1.95264 12.9248 5.08203 16.0625 9 16.0625ZM8.9917 8.74951C7.81299 8.74121 6.8584 7.74512 6.8584 6.41699C6.8584 5.17188 7.81299 4.14258 8.9917 4.14258C10.1704 4.14258 11.125 5.17188 11.125 6.41699C11.125 7.74512 10.1704 8.75781 8.9917 8.74951ZM5.19824 13.2153C4.86621 13.2153 4.7085 12.9912 4.7085 12.6924C4.7085 11.7793 6.07812 9.42188 8.9917 9.42188C11.9053 9.42188 13.2749 11.7793 13.2749 12.6924C13.2749 12.9912 13.1172 13.2153 12.7852 13.2153H5.19824Z" fill="white"/>
</svg>
