<svg width="24" height="24" viewBox="0 0 24 24" fill="none" xmlns="http://www.w3.org/2000/svg">
<rect width="24" height="24" rx="4" fill="black" fill-opacity="0.2"/>
<path d="M5.71429 10.8571H9.14286C10.0886 10.8571 10.8571 10.0886 10.8571 9.14286V5.71429C10.8571 4.76857 10.0886 4 9.14286 4H5.71429C4.76857 4 4 4.76857 4 5.71429V9.14286C4 10.0886 4.76857 10.8571 5.71429 10.8571ZM6.28571 6.28571H8.57143V8.57143H6.28571V6.28571Z" fill="white"/>
<path d="M4 18.2857C4 19.2314 4.76857 20 5.71429 20H9.14286C10.0886 20 10.8571 19.2314 10.8571 18.2857V14.8571C10.8571 13.9114 10.0886 13.1429 9.14286 13.1429H5.71429C4.76857 13.1429 4 13.9114 4 14.8571V18.2857ZM6.28571 15.4286H8.57143V17.7143H6.28571V15.4286Z" fill="white"/>
<path d="M18.2857 10.8571C19.2314 10.8571 20 10.0886 20 9.14286V5.71429C20 4.76857 19.2314 4 18.2857 4H14.8571C13.9114 4 13.1429 4.76857 13.1429 5.71429V9.14286C13.1429 10.0886 13.9114 10.8571 14.8571 10.8571H18.2857ZM15.4286 6.28571H17.7143V8.57143H15.4286V6.28571Z" fill="white"/>
<path d="M17.7143 15.4286H15.4286V17.7143H17.7143V15.4286Z" fill="white"/>
<path d="M20 13.1429H17.7143V15.4286H20V13.1429Z" fill="white"/>
<path d="M15.4286 13.1429H13.1429V15.4286H15.4286V13.1429Z" fill="white"/>
<path d="M20 17.7143H17.7143V20H20V17.7143Z" fill="white"/>
<path d="M15.4286 17.7143H13.1429V20H15.4286V17.7143Z" fill="white"/>
</svg>
