<svg width="24" height="24" viewBox="0 0 24 24" fill="none" xmlns="http://www.w3.org/2000/svg">
<path d="M13.002 18.7173C13.4163 18.7173 13.7403 18.5591 14.1395 18.1825L20.1061 12.5851C20.3999 12.3064 20.5129 11.9824 20.5129 11.7037C20.5129 11.4174 20.3999 11.101 20.1061 10.8223L14.1395 5.26255C13.7026 4.85574 13.4163 4.69 13.017 4.69C12.4144 4.69 11.985 5.15708 11.985 5.74469V8.42661H11.7966C6.59852 8.42661 4.18781 11.7639 4.18781 17.2333C4.18781 18.19 4.59461 18.6872 5.12196 18.6872C5.52123 18.6872 5.89037 18.5591 6.18418 18.0092C7.36693 15.8094 9.0469 15.0033 11.7966 15.0033H11.985V17.7003C11.985 18.2879 12.4144 18.7173 13.002 18.7173Z" fill="#8F92A1"/>
</svg>
