<svg width="61" height="28" viewBox="0 0 61 28" fill="none" xmlns="http://www.w3.org/2000/svg">
<path d="M42.4398 0V4.63515H52.0216L46.0721 10.6262L49.3245 13.9027L58.5279 4.63515L58.5293 0H42.4398Z" fill="white"/>
<path d="M57.6283 8.50958C59.5054 10.3998 60.6668 13.0108 60.6668 15.8952C60.6668 21.6639 56.0226 26.3405 50.2938 26.3405C47.4294 26.3405 44.8365 25.171 42.9593 23.2808L46.2145 20.0043C47.258 21.0564 48.7005 21.7067 50.2938 21.7067C53.4804 21.7067 56.0637 19.1054 56.0637 15.8952C56.0637 14.2907 55.4179 12.8382 54.3731 11.7875L57.6283 8.50958Z" fill="white"/>
<path d="M36.8104 6.94647C32.3664 6.94647 28.7656 10.5737 28.7656 15.0487V28H33.3605V22.368C34.4067 22.8692 35.5763 23.1495 36.8104 23.1495C41.253 23.1495 44.8551 19.5223 44.8551 15.0487C44.8551 10.5751 41.253 6.94647 36.8104 6.94647ZM36.8104 18.5143C34.9085 18.5143 33.3673 16.9624 33.3673 15.0487C33.3673 13.135 34.9085 11.5816 36.8104 11.5816C38.7122 11.5816 40.252 13.1336 40.252 15.0487C40.252 16.9638 38.7108 18.5143 36.8104 18.5143Z" fill="white"/>
<path d="M8.17774 18.523L8.16952 18.5105C8.11193 18.5188 8.05297 18.523 7.99401 18.523C7.23163 18.523 6.61459 17.9016 6.61459 17.1339V10.9289H10.4621V6.97169H6.61459V1.65997H2.01975V6.97169H0V10.9289H2.01975V17.1339C2.01975 19.6358 3.53766 21.7815 5.6959 22.6887C6.40343 22.9855 7.17952 23.1498 7.99401 23.1498C8.80849 23.1498 9.58321 22.9855 10.2907 22.6887C10.4676 22.6155 10.639 22.5326 10.8063 22.4429L8.17774 18.523Z" fill="white"/>
<path d="M19.2101 6.94647C14.7661 6.94647 11.1654 10.5737 11.1654 15.0487C11.1654 19.5236 14.7661 23.1495 19.2101 23.1495C20.4414 23.1495 21.6097 22.8706 22.6532 22.3707V23.1398H27.248V15.3621C27.2535 15.2585 27.2549 15.1536 27.2549 15.0487C27.2549 10.5737 23.6528 6.94647 19.2101 6.94647ZM19.2101 18.5143C17.3083 18.5143 15.7671 16.9624 15.7671 15.0487C15.7671 13.135 17.3083 11.5816 19.2101 11.5816C21.1119 11.5816 22.6518 13.1336 22.6518 15.0487C22.6518 16.9638 21.1106 18.5143 19.2101 18.5143Z" fill="white"/>
</svg>
